<svg xmlns="http://www.w3.org/2000/svg" xmlns:xlink="http://www.w3.org/1999/xlink" version="1.1" width="256" height="256" viewBox="0 0 256 256" xml:space="preserve">

<defs>
</defs>
<g style="stroke: none; stroke-width: 0; stroke-dasharray: none; stroke-linecap: butt; stroke-linejoin: miter; stroke-miterlimit: 10; fill: none; fill-rule: nonzero; opacity: 1;" transform="translate(1.4065934065934016 1.4065934065934016) scale(2.81 2.81)" >
	<path d="M 89 10.833 H 32.443 c -0.552 0 -1 -0.448 -1 -1 s 0.448 -1 1 -1 H 89 c 0.553 0 1 0.448 1 1 S 89.553 10.833 89 10.833 z" style="stroke: none; stroke-width: 1; stroke-dasharray: none; stroke-linecap: butt; stroke-linejoin: miter; stroke-miterlimit: 10; fill: rgb(0,0,0); fill-rule: nonzero; opacity: 1;" transform=" matrix(1 0 0 1 0 0) " stroke-linecap="round" />
	<path d="M 79.639 20.487 H 32.443 c -0.552 0 -1 -0.448 -1 -1 s 0.448 -1 1 -1 h 47.196 c 0.553 0 1 0.448 1 1 S 80.191 20.487 79.639 20.487 z" style="stroke: none; stroke-width: 1; stroke-dasharray: none; stroke-linecap: butt; stroke-linejoin: miter; stroke-miterlimit: 10; fill: rgb(0,0,0); fill-rule: nonzero; opacity: 1;" transform=" matrix(1 0 0 1 0 0) " stroke-linecap="round" />
	<path d="M 89 41.173 H 32.443 c -0.552 0 -1 -0.448 -1 -1 s 0.448 -1 1 -1 H 89 c 0.553 0 1 0.448 1 1 S 89.553 41.173 89 41.173 z" style="stroke: none; stroke-width: 1; stroke-dasharray: none; stroke-linecap: butt; stroke-linejoin: miter; stroke-miterlimit: 10; fill: rgb(0,0,0); fill-rule: nonzero; opacity: 1;" transform=" matrix(1 0 0 1 0 0) " stroke-linecap="round" />
	<path d="M 79.639 50.827 H 32.443 c -0.552 0 -1 -0.447 -1 -1 s 0.448 -1 1 -1 h 47.196 c 0.553 0 1 0.447 1 1 S 80.191 50.827 79.639 50.827 z" style="stroke: none; stroke-width: 1; stroke-dasharray: none; stroke-linecap: butt; stroke-linejoin: miter; stroke-miterlimit: 10; fill: rgb(0,0,0); fill-rule: nonzero; opacity: 1;" transform=" matrix(1 0 0 1 0 0) " stroke-linecap="round" />
	<path d="M 22.42 86.509 H 1 c -0.552 0 -1 -0.447 -1 -1 v -20.04 c 0 -0.553 0.448 -1 1 -1 h 21.42 c 0.552 0 1 0.447 1 1 v 20.04 C 23.42 86.062 22.972 86.509 22.42 86.509 z M 2 84.509 h 19.42 v -18.04 H 2 V 84.509 z" style="stroke: none; stroke-width: 1; stroke-dasharray: none; stroke-linecap: butt; stroke-linejoin: miter; stroke-miterlimit: 10; fill: rgb(0,0,0); fill-rule: nonzero; opacity: 1;" transform=" matrix(1 0 0 1 0 0) " stroke-linecap="round" />
	<path d="M 89 71.513 H 32.443 c -0.552 0 -1 -0.447 -1 -1 s 0.448 -1 1 -1 H 89 c 0.553 0 1 0.447 1 1 S 89.553 71.513 89 71.513 z" style="stroke: none; stroke-width: 1; stroke-dasharray: none; stroke-linecap: butt; stroke-linejoin: miter; stroke-miterlimit: 10; fill: rgb(0,0,0); fill-rule: nonzero; opacity: 1;" transform=" matrix(1 0 0 1 0 0) " stroke-linecap="round" />
	<path d="M 79.639 81.167 H 32.443 c -0.552 0 -1 -0.447 -1 -1 s 0.448 -1 1 -1 h 47.196 c 0.553 0 1 0.447 1 1 S 80.191 81.167 79.639 81.167 z" style="stroke: none; stroke-width: 1; stroke-dasharray: none; stroke-linecap: butt; stroke-linejoin: miter; stroke-miterlimit: 10; fill: rgb(0,0,0); fill-rule: nonzero; opacity: 1;" transform=" matrix(1 0 0 1 0 0) " stroke-linecap="round" />
	<path d="M 22.42 56.17 H 1 c -0.552 0 -1 -0.447 -1 -1 V 35.129 c 0 -0.552 0.448 -1 1 -1 h 21.42 c 0.552 0 1 0.448 1 1 V 55.17 C 23.42 55.723 22.972 56.17 22.42 56.17 z M 2 54.17 h 19.42 V 36.129 H 2 V 54.17 z" style="stroke: none; stroke-width: 1; stroke-dasharray: none; stroke-linecap: butt; stroke-linejoin: miter; stroke-miterlimit: 10; fill: rgb(0,0,0); fill-rule: nonzero; opacity: 1;" transform=" matrix(1 0 0 1 0 0) " stroke-linecap="round" />
	<path d="M 22.42 25.83 H 1 c -0.552 0 -1 -0.448 -1 -1 V 4.789 c 0 -0.552 0.448 -1 1 -1 h 21.42 c 0.552 0 1 0.448 1 1 V 24.83 C 23.42 25.382 22.972 25.83 22.42 25.83 z M 2 23.83 h 19.42 V 5.789 H 2 V 23.83 z" style="stroke: none; stroke-width: 1; stroke-dasharray: none; stroke-linecap: butt; stroke-linejoin: miter; stroke-miterlimit: 10; fill: rgb(0,0,0); fill-rule: nonzero; opacity: 1;" transform=" matrix(1 0 0 1 0 0) " stroke-linecap="round" />
	<path d="M 14.416 51.649 H 9 c -0.374 0 -0.717 -0.209 -0.889 -0.542 c -0.171 -0.332 -0.143 -0.732 0.074 -1.038 l 4.939 -6.943 c 0.342 -0.48 0.39 -1.087 0.129 -1.623 c -0.119 -0.245 -0.482 -0.816 -1.28 -0.853 c -0.001 0 -0.002 0 -0.003 0 c -1.125 0 -1.969 0.845 -1.969 1.884 c 0 0.552 -0.448 1 -1 1 s -1 -0.448 -1 -1 c 0 -2.143 1.743 -3.886 3.886 -3.886 l 0.177 0.004 c 1.297 0.059 2.414 0.796 2.988 1.974 c 0.578 1.186 0.464 2.588 -0.297 3.658 l -3.815 5.364 h 3.477 c 0.552 0 1 0.447 1 1 S 14.968 51.649 14.416 51.649 z" style="stroke: none; stroke-width: 1; stroke-dasharray: none; stroke-linecap: butt; stroke-linejoin: miter; stroke-miterlimit: 10; fill: rgb(0,0,0); fill-rule: nonzero; opacity: 1;" transform=" matrix(1 0 0 1 0 0) " stroke-linecap="round" />
	<path d="M 11.65 81.989 c -1.658 0 -3.139 -1.12 -3.6 -2.724 c -0.153 -0.531 0.154 -1.085 0.685 -1.237 c 0.533 -0.151 1.085 0.154 1.237 0.685 c 0.216 0.752 0.906 1.276 1.678 1.276 c 0.969 0 1.758 -0.788 1.758 -1.758 s -0.789 -1.758 -1.758 -1.758 c -0.552 0 -1 -0.447 -1 -1 s 0.448 -1 1 -1 c 2.072 0 3.758 1.686 3.758 3.758 S 13.723 81.989 11.65 81.989 z" style="stroke: none; stroke-width: 1; stroke-dasharray: none; stroke-linecap: butt; stroke-linejoin: miter; stroke-miterlimit: 10; fill: rgb(0,0,0); fill-rule: nonzero; opacity: 1;" transform=" matrix(1 0 0 1 0 0) " stroke-linecap="round" />
	<path d="M 11.65 76.505 c -0.552 0 -1 -0.447 -1 -1 s 0.448 -1 1 -1 c 0.969 0 1.758 -0.788 1.758 -1.758 s -0.789 -1.758 -1.758 -1.758 c -0.772 0 -1.462 0.524 -1.678 1.275 c -0.152 0.53 -0.706 0.836 -1.237 0.685 c -0.531 -0.152 -0.837 -0.706 -0.685 -1.237 c 0.461 -1.604 1.941 -2.723 3.6 -2.723 c 2.072 0 3.758 1.686 3.758 3.758 S 13.723 76.505 11.65 76.505 z" style="stroke: none; stroke-width: 1; stroke-dasharray: none; stroke-linecap: butt; stroke-linejoin: miter; stroke-miterlimit: 10; fill: rgb(0,0,0); fill-rule: nonzero; opacity: 1;" transform=" matrix(1 0 0 1 0 0) " stroke-linecap="round" />
	<path d="M 11.71 21.309 c -0.552 0 -1 -0.448 -1 -1 v -9.023 l -1.427 1.05 c -0.446 0.326 -1.071 0.231 -1.398 -0.213 c -0.327 -0.445 -0.232 -1.071 0.213 -1.398 l 3.02 -2.222 c 0.304 -0.224 0.708 -0.256 1.044 -0.087 c 0.337 0.17 0.549 0.516 0.549 0.893 v 11 C 12.71 20.861 12.262 21.309 11.71 21.309 z" style="stroke: none; stroke-width: 1; stroke-dasharray: none; stroke-linecap: butt; stroke-linejoin: miter; stroke-miterlimit: 10; fill: rgb(0,0,0); fill-rule: nonzero; opacity: 1;" transform=" matrix(1 0 0 1 0 0) " stroke-linecap="round" />
</g>
</svg>